Exact Audio Copy V0.99 prebeta 1 from 25. May 2007

EAC 抓取日志文件从7. 十二月 2010, 2:00

蔡国庆 / 20世纪中华歌坛名人百集珍藏版

使用驱动器  ：PIONEER DVD-RW  DVR-115   Adapter: 0  ID: 0

读取模式     : 保护
使用精确流   : 是
废除音频缓冲 : 是
使用 C2 指针 : 否

读取偏移校正                   : 38
读取 Lead-In 和 Lead-Out       : 否
用静音填充抓取中丢失偏移的采样 : 是
去除首尾静音块                 : 否
已用接口                       : 已安装外部 ASPI 接口

所用输出格式 : 内部 WAV 函数
样本格式     : 44.100 Hz;16 Bit;立体声


被抓轨 CD 的 TOC

     音轨 |   开始   |   长度   | 起始扇区 | 结尾扇区 
    --------------------------------------------------
       1  |  0:00.00 |  4:29.30 |       0  |   20204  
       2  |  4:29.30 |  3:40.60 |   20205  |   36764  
       3  |  8:10.15 |  4:33.47 |   36765  |   57286  
       4  | 12:43.62 |  3:04.58 |   57287  |   71144  
       5  | 15:48.45 |  4:39.67 |   71145  |   92136  
       6  | 20:28.37 |  3:49.30 |   92137  |  109341  
       7  | 24:17.67 |  3:54.35 |  109342  |  126926  
       8  | 28:12.27 |  4:40.35 |  126927  |  147961  
       9  | 32:52.62 |  5:52.47 |  147962  |  174408  
      10  | 38:45.34 |  4:38.71 |  174409  |  195329  
      11  | 43:24.30 |  3:52.55 |  195330  |  212784  
      12  | 47:17.10 |  3:53.24 |  212785  |  230283  
      13  | 51:10.34 |  4:06.61 |  230284  |  248794  
      14  | 55:17.20 |  5:00.25 |  248795  |  271319  


范围状态及错误

已选择范围

     文件名 E:\文件夹\20世纪中华歌坛名人百集珍藏版-蔡国庆[lwg188原创]\蔡国庆 - 20世纪中华歌坛名人百集珍藏版.wav

     峰值电平 95.6 %
     范围质量 100.0 %
     复制 CRC 110D0EB8
     复制成功

没有错误发生

状态报告结尾
